<svg width="31" height="30" viewBox="0 0 31 30" fill="none" xmlns="http://www.w3.org/2000/svg">
<path d="M13.7197 6.04083C14.2196 8.20614 13.5451 11.9806 11.7348 12.3985C9.92442 12.8165 7.66367 9.71968 7.16377 7.55437C6.66386 5.38906 7.46758 2.17473 9.27794 1.75678C11.0883 1.33882 13.2197 3.87552 13.7197 6.04083Z" fill="#A3C7EE"/>
<path d="M22.849 6.55437C22.3491 8.71968 20.0883 11.8165 18.2779 11.3985C16.4676 10.9806 15.7932 7.20613 16.2931 5.04082C16.793 2.87551 18.9244 0.338819 20.7348 0.756773C22.5451 1.17473 23.3489 4.38906 22.849 6.55437Z" fill="#A3C7EE"/>
<path d="M29.9677 10.5881C29.5247 12.3649 27.5185 14.8593 25.9109 14.4584C24.3032 14.0576 23.7029 10.9134 24.1459 9.13652C24.589 7.35966 26.4805 5.32494 28.0882 5.72577C29.6958 6.12659 30.4107 8.81119 29.9677 10.5881Z" fill="#A3C7EE"/>
<path d="M28.0242 21.8856C29.3393 28.0016 23.5422 23.0371 17.243 24.3915C10.9437 25.7459 7.76101 32.1082 6.44599 25.9921C5.13098 19.8761 8.30455 13.6905 14.6038 12.3361C20.9031 10.9817 26.7092 15.7695 28.0242 21.8856Z" fill="#A3C7EE"/>
<path d="M6.85313 12.1365C7.29615 13.9134 6.69582 17.0576 5.08818 17.4584C3.48055 17.8593 1.47437 15.3649 1.03135 13.5881C0.588329 11.8112 1.30325 9.1266 2.91089 8.72577C4.51853 8.32494 6.4101 10.3597 6.85313 12.1365Z" fill="#A3C7EE"/>
</svg>
